<?xml version="1.0" standalone="no"?>
<!DOCTYPE svg PUBLIC "-//W3C//DTD SVG 20010904//EN"
 "http://www.w3.org/TR/2001/REC-SVG-20010904/DTD/svg10.dtd">
<svg version="1.0" xmlns="http://www.w3.org/2000/svg"
 width="512.000000pt" height="512.000000pt" viewBox="0 0 512.000000 512.000000"
 preserveAspectRatio="xMidYMid meet">

<g transform="translate(0.000000,512.000000) scale(0.100000,-0.100000)"
fill="#000000" stroke="none">
<path d="M2236 5101 c-93 -61 -92 -208 2 -263 21 -13 51 -18 101 -18 l71 0 0
-425 0 -425 -45 0 c-72 0 -253 -28 -381 -59 -396 -97 -751 -303 -979 -568
-565 -658 -319 -1534 550 -1958 153 -75 266 -116 428 -155 111 -27 292 -57
382 -63 l40 -2 3 -433 2 -432 -192 0 c-174 0 -196 -2 -225 -20 -89 -54 -89
-206 0 -260 31 -19 54 -20 567 -20 513 0 536 1 567 20 89 54 89 206 0 260 -29
18 -51 20 -224 20 l-193 0 0 435 0 435 45 0 c65 0 232 26 360 57 377 89 726
283 955 530 257 278 376 624 329 959 -77 554 -579 1025 -1273 1195 -124 30
-308 59 -376 59 l-40 0 0 425 0 425 71 0 c50 0 80 5 101 18 94 55 94 209 0
265 -27 15 -62 17 -324 17 -271 0 -295 -2 -322 -19z m174 -2532 l0 -1092 -77
7 c-199 18 -434 83 -620 171 -348 165 -581 410 -669 700 -23 77 -27 108 -27
215 0 107 4 138 27 215 87 289 322 535 667 699 198 94 478 168 657 175 l42 1
0 -1091z m546 1060 c551 -105 988 -437 1110 -844 23 -77 27 -108 27 -215 0
-107 -4 -138 -27 -215 -88 -290 -321 -535 -669 -700 -184 -87 -416 -151 -614
-171 l-73 -7 0 1093 0 1093 73 -7 c39 -4 118 -16 173 -27z"/>
</g>
</svg>
