<?xml version="1.0" standalone="no"?>
<!DOCTYPE svg PUBLIC "-//W3C//DTD SVG 20010904//EN"
 "http://www.w3.org/TR/2001/REC-SVG-20010904/DTD/svg10.dtd">
<svg version="1.0" xmlns="http://www.w3.org/2000/svg"
 width="512.000000pt" height="512.000000pt" viewBox="0 0 512.000000 512.000000"
 preserveAspectRatio="xMidYMid meet">

<g transform="translate(0.000000,512.000000) scale(0.100000,-0.100000)"
fill="#000000" stroke="none">
<path d="M404 5110 c-27 -11 -72 -65 -80 -96 -4 -14 -4 -46 -1 -72 4 -37 12
-53 44 -82 34 -32 48 -38 120 -48 96 -13 163 -44 214 -99 97 -105 99 -115 99
-665 0 -256 5 -502 11 -556 66 -602 434 -1124 981 -1390 176 -86 362 -140 571
-167 l47 -6 0 -815 0 -814 -192 0 c-174 0 -196 -2 -225 -20 -89 -54 -89 -206
0 -260 31 -19 54 -20 567 -20 513 0 536 1 567 20 89 54 89 206 0 260 -29 18
-51 20 -224 20 l-193 0 0 814 0 815 48 6 c208 27 394 81 570 167 547 266 915
788 981 1390 6 54 11 300 11 556 0 550 2 560 99 665 51 55 118 86 214 99 73
11 86 16 121 48 34 32 40 43 44 92 5 61 -9 97 -53 138 -51 48 -224 38 -352
-20 -172 -78 -286 -204 -350 -385 l-28 -80 -6 -555 c-7 -540 -9 -587 -43 -715
-109 -420 -390 -766 -771 -950 -158 -77 -251 -106 -447 -139 l-38 -7 0 1291 0
1290 71 0 c53 0 80 5 103 19 92 57 92 205 0 262 -29 18 -52 19 -324 19 -260 0
-295 -2 -322 -17 -94 -56 -94 -210 0 -265 21 -13 51 -18 101 -18 l71 0 0
-1290 0 -1291 -37 7 c-197 33 -290 62 -448 139 -381 184 -662 530 -771 950
-34 128 -36 175 -43 715 l-6 555 -28 80 c-64 181 -179 307 -350 385 -34 15
-86 33 -115 39 -61 13 -177 14 -208 1z"/>
</g>
</svg>
